<svg width="25" height="35" viewBox="0 0 25 35" fill="none" xmlns="http://www.w3.org/2000/svg">
<path d="M24.7109 35H1.32031V30.3594L12.3594 18.5938C13.875 16.9375 14.9922 15.4922 15.7109 14.2578C16.4453 13.0234 16.8125 11.8516 16.8125 10.7422C16.8125 9.22656 16.4297 8.03906 15.6641 7.17969C14.8984 6.30469 13.8047 5.86719 12.3828 5.86719C10.8516 5.86719 9.64062 6.39844 8.75 7.46094C7.875 8.50781 7.4375 9.89062 7.4375 11.6094H0.640625C0.640625 9.53125 1.13281 7.63281 2.11719 5.91406C3.11719 4.19531 4.52344 2.85156 6.33594 1.88281C8.14844 0.898438 10.2031 0.40625 12.5 0.40625C16.0156 0.40625 18.7422 1.25 20.6797 2.9375C22.6328 4.625 23.6094 7.00781 23.6094 10.0859C23.6094 11.7734 23.1719 13.4922 22.2969 15.2422C21.4219 16.9922 19.9219 19.0312 17.7969 21.3594L10.0391 29.5391H24.7109V35Z" fill="#38CEA8"/>
</svg>
