<svg width="25" height="36" viewBox="0 0 25 36" fill="none" xmlns="http://www.w3.org/2000/svg">
<path d="M8.21094 14.9375H11.8203C13.5391 14.9375 14.8125 14.5078 15.6406 13.6484C16.4688 12.7891 16.8828 11.6484 16.8828 10.2266C16.8828 8.85156 16.4688 7.78125 15.6406 7.01562C14.8281 6.25 13.7031 5.86719 12.2656 5.86719C10.9688 5.86719 9.88281 6.22656 9.00781 6.94531C8.13281 7.64844 7.69531 8.57031 7.69531 9.71094H0.921875C0.921875 7.92969 1.39844 6.33594 2.35156 4.92969C3.32031 3.50781 4.66406 2.39844 6.38281 1.60156C8.11719 0.804688 10.0234 0.40625 12.1016 0.40625C15.7109 0.40625 18.5391 1.27344 20.5859 3.00781C22.6328 4.72656 23.6562 7.10156 23.6562 10.1328C23.6562 11.6953 23.1797 13.1328 22.2266 14.4453C21.2734 15.7578 20.0234 16.7656 18.4766 17.4688C20.3984 18.1562 21.8281 19.1875 22.7656 20.5625C23.7188 21.9375 24.1953 23.5625 24.1953 25.4375C24.1953 28.4688 23.0859 30.8984 20.8672 32.7266C18.6641 34.5547 15.7422 35.4688 12.1016 35.4688C8.69531 35.4688 5.90625 34.5703 3.73438 32.7734C1.57812 30.9766 0.5 28.6016 0.5 25.6484H7.27344C7.27344 26.9297 7.75 27.9766 8.70312 28.7891C9.67188 29.6016 10.8594 30.0078 12.2656 30.0078C13.875 30.0078 15.1328 29.5859 16.0391 28.7422C16.9609 27.8828 17.4219 26.75 17.4219 25.3438C17.4219 21.9375 15.5469 20.2344 11.7969 20.2344H8.21094V14.9375Z" fill="#38CEA8"/>
</svg>
