<svg width="17" height="16" viewBox="0 0 17 16" fill="none" xmlns="http://www.w3.org/2000/svg">
<g clip-path="url(#clip0_0_304)">
<path d="M13.9733 0H2.47835C1.16515 0 0.0968018 1.05139 0.0968018 2.34375V13.6562C0.0968018 14.9486 1.16515 16 2.47835 16H13.9733C15.2865 16 16.3549 14.9486 16.3549 13.6562V2.34375C16.3549 1.05139 15.2865 0 13.9733 0ZM15.4022 13.6562C15.4022 14.4316 14.7612 15.0625 13.9733 15.0625H2.47835C1.69046 15.0625 1.04942 14.4316 1.04942 13.6562V2.34375C1.04942 1.56836 1.69046 0.9375 2.47835 0.9375H13.9733C14.7612 0.9375 15.4022 1.56836 15.4022 2.34375V13.6562Z" fill="#20414D"/>
<path d="M7.74949 6.59375C7.74949 5.55981 6.89486 4.71875 5.84425 4.71875H2.98639V11.2812H5.84425C6.89486 11.2812 7.74949 10.4402 7.74949 9.40625C7.74949 8.84668 7.49881 8.34387 7.10238 8C7.49881 7.65613 7.74949 7.15332 7.74949 6.59375ZM6.79687 9.40625C6.79687 9.92322 6.36956 10.3438 5.84425 10.3438H3.93901V8.46875H5.84425C6.36956 8.46875 6.79687 8.88928 6.79687 9.40625ZM3.93901 7.53125V5.65625H5.84425C6.36956 5.65625 6.79687 6.07678 6.79687 6.59375C6.79687 7.11072 6.36956 7.53125 5.84425 7.53125H3.93901Z" fill="#20414D"/>
<path d="M11.0837 6.59375C9.7705 6.59375 8.70215 7.64514 8.70215 8.9375C8.70215 10.2299 9.7705 11.2812 11.0837 11.2812C11.9313 11.2812 12.7216 10.8324 13.1463 10.1097L12.3217 9.64026C12.0667 10.0742 11.5923 10.3438 11.0837 10.3438C10.4626 10.3438 9.93299 9.9519 9.73639 9.40625H13.4653V8.9375C13.4653 7.64514 12.3969 6.59375 11.0837 6.59375ZM9.73639 8.46875C9.93299 7.9231 10.4626 7.53125 11.0837 7.53125C11.7048 7.53125 12.2344 7.9231 12.431 8.46875H9.73639Z" fill="#20414D"/>
<path d="M9.17847 4.71875H12.989V5.65625H9.17847V4.71875Z" fill="#20414D"/>
</g>
<defs>
<clipPath id="clip0_0_304">
<rect width="16.2581" height="16" fill="white" transform="translate(0.0968018)"/>
</clipPath>
</defs>
</svg>
