<svg width="18" height="16" viewBox="0 0 18 16" fill="none" xmlns="http://www.w3.org/2000/svg">
<g clip-path="url(#clip0_0_302)">
<path d="M10.0331 15.9688H7.42447C6.98874 15.9688 6.63428 15.6206 6.63428 15.1926V9.41333H5.11233C4.6766 9.41333 4.32214 9.06506 4.32214 8.63721V6.16077C4.32214 5.73279 4.6766 5.38464 5.11233 5.38464H6.63428V4.14453C6.63428 2.91492 7.02739 1.86877 7.77097 1.11938C8.5179 0.366577 9.56175 -0.03125 10.7897 -0.03125L12.7792 -0.0280762C13.2141 -0.0273438 13.568 0.320801 13.568 0.748047V3.04736C13.568 3.47534 13.2136 3.82349 12.778 3.82349L11.4385 3.82397C11.03 3.82397 10.926 3.90442 10.9037 3.92908C10.8671 3.96997 10.8235 4.08557 10.8235 4.40479V5.38452H12.6774C12.8169 5.38452 12.9522 5.41833 13.0684 5.48206C13.319 5.61963 13.4749 5.87976 13.4749 6.16089L13.4739 8.63733C13.4739 9.06506 13.1194 9.41321 12.6837 9.41321H10.8235V15.1926C10.8235 15.6206 10.4689 15.9688 10.0331 15.9688ZM7.58927 15.0308H9.86835V8.99341C9.86835 8.70764 10.1051 8.47522 10.3959 8.47522H12.5189L12.5198 6.32263H10.3958C10.105 6.32263 9.86835 6.09021 9.86835 5.80444V4.40479C9.86835 4.03833 9.90626 3.62158 10.1879 3.30835C10.5282 2.92969 11.0644 2.88599 11.4383 2.88599L12.613 2.8855V0.909668L10.7889 0.906738C8.81556 0.906738 7.58927 2.14746 7.58927 4.14453V5.80444C7.58927 6.09009 7.35263 6.32263 7.06182 6.32263H5.27713V8.47522H7.06182C7.35263 8.47522 7.58927 8.70764 7.58927 8.99341V15.0308ZM12.7773 0.909912H12.7774H12.7773Z" fill="#20414D"/>
</g>
<defs>
<clipPath id="clip0_0_302">
<rect width="16.2581" height="16" fill="white" transform="translate(0.806458)"/>
</clipPath>
</defs>
</svg>
