<svg width="17" height="16" viewBox="0 0 17 16" fill="none" xmlns="http://www.w3.org/2000/svg">
<g clip-path="url(#clip0_0_296)">
<path d="M2.83315 16H14.3281C15.6413 16 16.7097 14.9486 16.7097 13.6562V2.34375C16.7097 1.05139 15.6413 0 14.3281 0H2.83315C1.51995 0 0.451599 1.05139 0.451599 2.34375V13.6562C0.451599 14.9486 1.51995 16 2.83315 16ZM1.40422 2.34375C1.40422 1.56836 2.04525 0.9375 2.83315 0.9375H14.3281C15.116 0.9375 15.757 1.56836 15.757 2.34375V13.6562C15.757 14.4316 15.116 15.0625 14.3281 15.0625H2.83315C2.04525 15.0625 1.40422 14.4316 1.40422 13.6562V2.34375Z" fill="#20414D"/>
<path d="M8.58062 12.2188C10.9443 12.2188 12.8674 10.3262 12.8674 8C12.8674 5.67383 10.9443 3.78125 8.58062 3.78125C6.21693 3.78125 4.29382 5.67383 4.29382 8C4.29382 10.3262 6.21693 12.2188 8.58062 12.2188ZM8.58062 4.71875C10.4191 4.71875 11.9148 6.19067 11.9148 8C11.9148 9.80933 10.4191 11.2812 8.58062 11.2812C6.74211 11.2812 5.24644 9.80933 5.24644 8C5.24644 6.19067 6.74211 4.71875 8.58062 4.71875Z" fill="#20414D"/>
<path d="M13.3437 4.71875C14.1316 4.71875 14.7727 4.08789 14.7727 3.3125C14.7727 2.53711 14.1316 1.90625 13.3437 1.90625C12.5558 1.90625 11.9148 2.53711 11.9148 3.3125C11.9148 4.08789 12.5558 4.71875 13.3437 4.71875ZM13.3437 2.84375C13.6063 2.84375 13.82 3.05408 13.82 3.3125C13.82 3.57092 13.6063 3.78125 13.3437 3.78125C13.0811 3.78125 12.8674 3.57092 12.8674 3.3125C12.8674 3.05408 13.0811 2.84375 13.3437 2.84375Z" fill="#20414D"/>
</g>
<defs>
<clipPath id="clip0_0_296">
<rect width="16.2581" height="16" fill="white" transform="translate(0.451599)"/>
</clipPath>
</defs>
</svg>
