<svg width="17" height="16" viewBox="0 0 17 16" fill="none" xmlns="http://www.w3.org/2000/svg">
<g clip-path="url(#clip0_0_300)">
<path d="M6.34748 14.616C3.634 14.616 1.48936 14.1494 0.463314 13.3362L0.443343 13.3203L0.425234 13.3025C0.181497 13.0625 0.101616 12.7477 0.206305 12.4389L0.215856 12.4132C0.342872 12.1006 0.654086 11.8902 0.991348 11.8882C1.68547 11.8764 2.29277 11.7949 2.84387 11.6369C1.96481 11.2345 1.35416 10.5379 0.990852 9.52956C0.868673 9.2151 0.974106 8.86647 1.25568 8.65859C1.32514 8.60719 1.40365 8.56838 1.48676 8.54238C0.998294 7.98744 0.637464 7.35597 0.435405 6.68813L0.429079 6.66738L0.424737 6.64614C0.356144 6.30837 0.50958 5.96108 0.790777 5.81154C0.908738 5.74489 1.03687 5.71034 1.1655 5.70742C1.02682 5.41347 0.925979 5.11171 0.866193 4.80812C0.700228 3.96681 0.837167 3.12343 1.27304 2.30141L1.37388 2.10292C1.45463 1.94411 1.60894 1.83254 1.78681 1.8041C1.96468 1.77578 2.14702 1.83364 2.27441 1.959L2.45811 2.14003C3.90937 3.63735 5.2093 4.3478 7.45676 4.83388C7.55711 3.98488 7.93009 3.1957 8.53181 2.5746C9.24789 1.83559 10.2041 1.42092 11.2243 1.40676H11.231C11.9754 1.40676 12.8987 1.82497 13.4572 2.11989C13.9362 1.96559 14.5133 1.7267 15.1122 1.47414C15.3924 1.34474 15.7379 1.40395 15.9582 1.62075C16.1741 1.83327 16.234 2.13295 16.1194 2.42421C16.0759 2.54348 16.0265 2.66054 15.9715 2.77504C16.0535 2.81203 16.1286 2.8622 16.192 2.92458C16.3836 3.11318 16.4635 3.40834 16.3954 3.67665L16.3881 3.70217C16.1586 4.42995 15.7178 5.02272 15.1348 5.39479C15.0374 10.4975 11.1329 14.616 6.34748 14.616ZM1.37761 12.8136C2.34449 13.3519 4.18709 13.6776 6.34748 13.6776C8.42451 13.6776 10.3846 12.8001 11.8665 11.2066C13.3605 9.59999 14.1833 7.46657 14.1833 5.19924V5.17372C14.1833 4.9684 14.2981 4.78102 14.483 4.68459C14.8579 4.48915 15.1616 4.15627 15.359 3.73061C15.1554 3.76222 14.9483 3.68178 14.8215 3.51406C14.674 3.31911 14.6724 3.0558 14.8174 2.85915C14.8956 2.75295 14.9666 2.64247 15.0298 2.52822C14.5127 2.74196 14.0217 2.93361 13.5953 3.06093C13.4404 3.10707 13.2677 3.08901 13.1262 3.01125C12.3672 2.59511 11.6603 2.34633 11.2341 2.34511C9.66143 2.36879 8.38271 3.69435 8.38271 5.30153C8.38271 5.46767 8.30779 5.62343 8.17743 5.72902C8.04694 5.83449 7.87725 5.87673 7.71154 5.8445C5.12011 5.34206 3.58451 4.58864 1.98763 3.00942C1.75878 3.54909 1.69626 4.09267 1.80207 4.62941C1.90936 5.17311 2.19478 5.71791 2.62755 6.20485C2.79202 6.38967 2.81385 6.65407 2.68188 6.86269C2.5504 7.07057 2.30046 7.16774 2.06019 7.10439C1.8724 7.05483 1.69974 6.98976 1.536 6.90615C1.86954 7.61916 2.44323 8.27858 3.16439 8.76491C3.37339 8.9059 3.46072 9.16872 3.37687 9.40407C3.29289 9.63979 3.05834 9.79152 2.8048 9.77297C2.52856 9.75282 2.28384 9.70119 2.05858 9.61415C2.46295 10.4246 3.10907 10.8705 4.10448 11.0409C4.34152 11.0816 4.52609 11.2658 4.5638 11.4993C4.60163 11.7328 4.48416 11.9642 4.27169 12.0752C3.42326 12.5178 2.49594 12.7554 1.37761 12.8136Z" fill="#20414D"/>
</g>
<defs>
<clipPath id="clip0_0_300">
<rect width="16.2581" height="16" fill="white" transform="translate(0.161285)"/>
</clipPath>
</defs>
</svg>
