<svg width="100" height="100" viewBox="0 0 100 100" fill="none" xmlns="http://www.w3.org/2000/svg">
<path d="M44.0966 51.6099L54.074 49.4481V44.2932C52.4111 43.7943 50.7482 43.4617 49.0853 43.4617V36.3113C48.2539 36.6439 47.5887 36.8101 46.7573 36.9764H46.591C46.2584 36.9764 45.7595 37.1427 45.4269 37.1427H45.2606C44.4292 37.1427 43.764 37.1427 42.9326 37.1427H42.7663C42.4337 37.1427 41.9349 36.9764 41.6023 36.9764H41.436C40.6045 36.8101 39.9394 36.4776 39.1079 36.3113V43.2954C37.445 43.2954 35.7822 43.628 34.1193 44.1269V49.2818L44.0966 51.6099Z" fill="#EAE8CA"/>
<path d="M41.6022 36.9764C41.9348 36.9764 42.4337 37.1427 42.7663 37.1427H42.9326C43.764 37.1427 44.4292 37.1427 45.2606 37.1427H45.4269C45.7595 37.1427 46.2583 36.9764 46.5909 36.9764H46.7572C47.5887 36.8101 48.2538 36.4775 49.0853 36.3112C49.7504 35.9786 50.5819 35.6461 51.247 35.1472C57.2334 30.99 60.7255 27.4979 60.7255 20.1811V19.3497L49.0853 13.3633L27.4677 17.1879C27.4677 17.5205 27.4677 18.0194 27.4677 18.352V20.0149C27.4677 20.8463 27.4677 21.6778 27.6339 22.5092C27.6339 22.8418 27.8002 23.1744 27.8002 23.5069C27.8002 23.8395 27.9665 24.3384 28.1328 24.671C28.2991 25.0035 28.4654 25.3361 28.4654 25.835C28.6317 26.1676 28.6317 26.3339 28.798 26.6664C28.9643 26.999 29.1305 27.4979 29.4631 27.8305C29.6294 27.9967 29.6294 28.3293 29.7957 28.4956C30.1283 28.8282 30.2946 29.3271 30.6271 29.6596C30.7934 29.8259 30.9597 29.9922 30.9597 30.1585C31.2923 30.4911 31.6249 30.99 32.1238 31.3225C32.29 31.4888 32.4563 31.6551 32.4563 31.6551C32.9552 31.9877 33.2878 32.4866 33.7866 32.8191C33.9529 32.8191 33.9529 32.9854 34.1192 32.9854C34.6181 33.4843 35.2832 33.8169 35.9484 34.3157C36.281 34.482 36.6136 34.8146 36.7799 34.9809C37.445 35.4798 38.1102 35.8124 38.9416 36.1449C39.7731 36.4775 40.4382 36.6438 41.2697 36.8101C41.436 36.9764 41.6022 36.9764 41.6022 36.9764Z" fill="#EAE8CA"/>
<path d="M60.7255 45.9559C58.73 44.9582 56.5683 44.293 54.0739 43.9604V44.293V49.448L44.0966 51.6098L34.1192 49.448V44.293V43.9604C31.6249 44.293 29.4631 45.1245 27.4677 45.9559V46.6211V61.2546C27.4677 63.25 29.6294 64.9129 32.4563 64.9129H55.7368C58.5638 64.9129 60.7255 63.25 60.7255 61.2546V59.9242V48.284V45.9559Z" fill="#38CEA8"/>
<path d="M27.4677 61.5871V61.2546V46.6211C21.315 52.6075 17.4904 63.0837 17.4904 71.5645C17.4904 75.5554 17.6566 84.0362 20.3173 86.5305H25.8048L25.306 83.8699C24.6408 79.0475 25.306 65.9107 27.4677 61.5871Z" fill="#EAE8CA"/>
<path d="M78.8511 28.3292H79.0174H78.8511L77.8534 43.7941C77.6871 46.2885 75.5253 48.2839 72.8647 48.2839H60.7256V59.9242L80.0152 55.767C82.3432 55.2681 84.0061 53.2726 84.0061 50.9446V25.0034H79.0174L78.8511 28.3292Z" fill="#EAE8CA"/>
<path d="M65.7142 23.3406V33.3179H72.3658V28.3293V23.3406H65.7142Z" fill="#6A9FD3"/>
<path d="M93.9835 23.3406H87.3319V33.3179H93.9835V23.3406Z" fill="#6A9FD3"/>
<path d="M33.6204 5.38126C32.7889 6.04642 31.9575 6.87787 31.126 7.87561C31.126 8.04189 30.9597 8.04189 30.9597 8.20818C30.6271 8.54076 30.4609 8.87334 30.1283 9.20592C29.962 9.37221 29.962 9.5385 29.7957 9.70479C29.6294 10.0374 29.4631 10.3699 29.2968 10.7025C29.1305 10.8688 29.1305 11.0351 28.9643 11.3677C28.798 11.7003 28.798 11.8666 28.6317 12.1991C28.6317 12.3654 28.4654 12.5317 28.4654 12.698V12.8643C28.2991 13.1969 28.2991 13.5294 28.1328 13.6957C28.1328 13.862 27.9665 14.0283 27.9665 14.1946C27.8002 14.5272 27.8002 14.8598 27.8002 15.3586C27.8002 15.5249 27.8002 15.6912 27.6339 15.8575C27.6339 16.1901 27.4677 16.6889 27.4677 17.0215V17.1878L49.0853 13.3632L60.7255 19.1833V18.3518C60.7255 8.87334 52.7436 1.05774 42.9326 1.7229C42.4337 1.7229 41.9348 1.88919 41.2697 1.88919C41.1034 1.88919 40.9371 1.88919 40.7708 2.05548C40.4382 2.05548 40.1056 2.22177 39.7731 2.22177C39.6068 2.22177 39.2742 2.38806 39.1079 2.38806C38.7753 2.38806 38.609 2.55434 38.2765 2.72063C38.1102 2.88692 37.7776 2.88692 37.6113 3.05321C37.445 3.2195 37.1124 3.2195 36.9461 3.38579C36.7799 3.55208 36.4473 3.55208 36.281 3.71837C36.1147 3.88466 35.9484 3.88466 35.6158 4.05095C35.2832 4.21724 35.117 4.38353 34.9507 4.54982C34.7844 4.71611 34.6181 4.71611 34.4518 4.8824C34.1192 4.8824 33.9529 5.21498 33.6204 5.38126Z" fill="#E8B408"/>
<path d="M5.8501 81.5417V91.5191H12.5017V86.5304V81.5417H5.8501Z" fill="#6A9FD3"/>
<path d="M30.7935 64.9128C32.9552 70.2341 32.9552 76.2205 30.7935 81.5418H34.1192V83.2047H57.3998L56.7346 81.0429C55.0717 76.0542 55.238 70.5667 57.2335 65.578L57.3998 64.9128H55.7369H32.4564H30.7935Z" fill="#EAE8CA"/>
<path d="M33.953 32.6529C33.4541 32.3203 32.9552 31.8214 32.6226 31.4888C32.4563 31.3226 32.2901 31.1563 32.2901 31.1563C31.9575 30.8237 31.4586 30.4911 31.126 29.9922C30.9597 29.8259 30.7935 29.6597 30.7935 29.4934C30.4609 29.1608 30.1283 28.8282 29.962 28.3293C29.7957 28.1631 29.6294 27.8305 29.6294 27.6642C29.4631 27.3316 29.1306 26.999 28.9643 26.5002C28.798 26.1676 28.798 26.0013 28.6317 25.6687C28.4654 25.3361 28.2991 25.0036 28.2991 24.5047C28.1328 24.1721 28.1328 23.6732 27.9665 23.3407C27.9665 23.0081 27.8002 22.6755 27.8002 22.3429C27.4677 21.8441 27.4677 21.0126 27.4677 20.0149V18.352C27.4677 18.0194 27.4677 17.5205 27.4677 17.188C27.4677 17.0217 27.4677 16.6891 27.4677 16.5228C27.4677 16.3565 27.4677 16.1902 27.4677 16.0239C27.4677 15.8576 27.4677 15.8576 27.4677 15.6913C27.4677 15.3588 27.634 15.1925 27.634 14.8599C27.634 14.6936 27.8002 14.5273 27.8002 14.361C27.8002 14.361 27.8002 14.361 27.8002 14.1947C27.9665 13.8622 27.9665 13.5296 28.1328 13.0307C28.1328 12.8644 28.2991 12.6981 28.2991 12.5319C28.4654 12.1993 28.6317 11.8667 28.798 11.3678C28.798 11.3678 28.798 11.2015 28.9643 11.2015C28.9643 11.2015 28.9643 11.0352 29.1306 11.0352C29.2969 10.7027 29.4631 10.5364 29.6294 10.2038L29.7957 10.0375C29.962 9.70493 30.1283 9.37235 30.4609 9.03977C30.4609 8.87348 30.6272 8.87348 30.6272 8.7072C30.7935 8.37462 30.9597 8.04204 31.2923 7.70946C31.4586 7.54317 31.4586 7.54317 31.6249 7.37688C31.7912 7.0443 32.1238 6.87801 32.2901 6.54543L32.4563 6.37914C32.6226 6.21285 32.9552 5.88028 33.1215 5.71399C33.2878 5.5477 33.2878 5.5477 33.4541 5.38141C32.6226 5.21512 31.7912 5.04883 30.7935 5.04883C24.3082 5.04883 19.1532 10.2038 19.1532 16.6891V41.6325C25.8048 41.6325 31.7912 38.8056 36.1147 34.3158C35.4496 33.8169 34.9507 33.4843 34.2855 32.9854C34.1192 32.8192 34.1192 32.8192 33.953 32.6529Z" fill="#E8B408"/>
<path d="M22.479 99.8338C22.479 94.5125 24.3082 87.3621 27.634 83.2048H57.3998L58.8964 85.034C62.2222 89.1912 64.0513 94.5125 64.0513 99.8338H22.479Z" fill="#38CEA8"/>
<path d="M93.9834 21.6776H87.3318C86.3341 21.6776 85.6689 22.3428 85.6689 23.3405V25.0034C85.6689 24.0056 85.0038 23.3405 84.006 23.3405H79.0174C78.1859 23.3405 77.3545 24.0056 77.3545 24.8371L77.1882 26.6663H74.0287V23.3405C74.0287 22.3428 73.3635 21.6776 72.3658 21.6776H65.7142C64.7165 21.6776 64.0513 22.3428 64.0513 23.3405V33.3179C64.0513 34.3156 64.7165 34.9807 65.7142 34.9807H72.3658C73.3635 34.9807 74.0287 34.3156 74.0287 33.3179V29.9921H77.0219L76.1904 43.6278C76.0242 45.2907 74.5275 46.621 72.8647 46.621H62.3884V45.9558C62.3884 45.2907 62.0558 44.7918 61.3907 44.4592C59.2289 43.4615 56.9009 42.6301 54.2402 42.2975C53.9077 42.2975 53.7414 42.2975 53.4088 42.2975C52.4111 41.9649 51.5796 41.7986 50.5819 41.6323V37.1425C51.0807 36.8099 51.5796 36.6436 52.0785 36.3111C57.7323 32.3201 62.2221 28.4955 62.2221 20.0147V19.1833V18.3518C62.2221 13.3631 60.0604 8.37445 56.402 5.04866C55.9031 4.54979 55.4043 4.05092 54.7391 3.71834C52.7436 2.22174 50.5819 1.224 48.2538 0.725135C46.7572 0.0599772 44.7617 -0.106312 42.9326 0.0599772C42.2674 0.0599772 41.7685 0.226267 41.2697 0.226267C41.1034 0.226267 40.7708 0.392556 40.6045 0.392556C40.2719 0.392556 39.9394 0.558845 39.6068 0.558845C39.2742 0.558845 38.9416 0.725135 38.7753 0.891424C38.609 0.891424 38.2765 1.05771 38.1102 1.05771C37.7776 1.224 37.445 1.224 37.1124 1.39029C36.9461 1.39029 36.7799 1.55658 36.4473 1.55658C36.1147 1.72287 35.7821 1.88916 35.4495 2.05545C35.2833 2.22174 35.117 2.22174 34.9507 2.38803C34.6181 2.55432 34.2855 2.72061 33.9529 3.05319C33.7866 3.21948 33.6204 3.21948 33.6204 3.38576C33.4541 3.55205 33.2878 3.55205 33.2878 3.71834C24.9733 2.22174 17.6566 8.70702 17.6566 16.8552V41.7986C17.6566 42.7963 18.3217 43.4615 19.3195 43.4615C25.8048 43.4615 31.7912 40.9672 36.4473 36.6436C36.7799 36.9762 37.2787 37.1425 37.6113 37.3088V41.7986C36.6136 41.9649 35.7821 42.1312 34.7844 42.4638C34.4518 42.2975 34.2855 42.2975 33.9529 42.4638C31.4586 42.9626 28.9643 43.6278 26.8025 44.6255C26.3036 44.9581 25.8048 45.457 25.8048 46.1221C19.9846 52.2748 15.8274 62.5848 15.8274 71.7307C15.8274 76.2205 15.9937 81.5418 17.324 85.0338H14.1645V81.7081C14.1645 80.7103 13.4993 80.0452 12.5016 80.0452H5.85003C4.85229 80.0452 4.18713 80.7103 4.18713 81.7081V91.6854C4.18713 92.6832 4.85229 93.3483 5.85003 93.3483H12.5016C13.4993 93.3483 14.1645 92.6832 14.1645 91.6854V88.3596H20.3172H23.643C21.8138 92.018 20.8161 96.0089 20.8161 99.9999H24.1419C24.1419 97.173 24.807 94.346 25.8048 91.6854C25.8048 92.6832 26.4699 93.3483 27.4676 93.3483H34.1192C35.117 93.3483 35.7821 92.6832 35.7821 91.6854V85.0338H56.5683L57.566 86.1979C60.7255 90.0225 62.3884 94.8449 62.3884 99.8336H65.7142C65.7142 94.0135 63.7187 88.5259 60.2267 84.0361L58.8963 82.3732L58.2312 80.3777C56.7346 75.7216 56.9009 70.733 58.7301 66.0769L58.8963 65.9106C61.0581 65.0791 62.5547 63.2499 62.5547 61.2545L80.514 57.4298C83.5072 56.7647 85.8352 54.104 85.8352 50.9445V33.3179C85.8352 34.3156 86.5004 34.9807 87.4981 34.9807H94.1497C95.1474 34.9807 95.8126 34.3156 95.8126 33.3179V23.3405C95.6463 22.3428 94.9811 21.6776 93.9834 21.6776ZM70.7029 31.655H67.3771V25.0034H70.7029V31.655ZM10.8387 89.8562H7.51292V83.2047H10.8387V89.8562ZM50.2493 33.6504C49.5841 33.983 49.0853 34.3156 48.4201 34.6482C47.755 34.9807 47.0898 35.147 46.4246 35.3133H46.2584C45.9258 35.3133 45.5932 35.4796 45.2606 35.4796H45.0943C44.4292 35.4796 43.764 35.4796 43.2651 35.4796H43.0989C42.7663 35.4796 42.4337 35.3133 42.1011 35.3133H41.9348C41.2697 35.147 40.6045 34.9807 39.9394 34.6482C39.2742 34.3156 38.609 33.983 38.1102 33.6504C37.7776 33.4841 37.445 33.1516 37.1124 32.9853C36.6136 32.6527 35.9484 32.1538 35.4495 31.8212C35.2833 31.655 35.117 31.4887 34.9507 31.3224C34.6181 30.9898 34.2855 30.6572 33.9529 30.4909C33.6204 30.3246 33.4541 29.9921 33.1215 29.8258C32.9552 29.6595 32.6226 29.3269 32.4563 29.1606C32.1238 28.828 31.9575 28.4955 31.6249 28.1629C31.4586 27.9966 31.2923 27.8303 31.126 27.664C30.9597 27.3314 30.6272 26.9989 30.4609 26.6663C30.2946 26.5 30.2946 26.3337 30.1283 26.1674C29.962 25.8348 29.7957 25.336 29.6294 25.0034C29.6294 24.8371 29.4631 24.6708 29.4631 24.5045C29.2968 24.0056 29.2968 23.6731 29.1305 23.1742C29.1305 23.0079 28.9643 22.8416 28.9643 22.6753C29.1305 21.5113 29.1305 20.8461 29.1305 20.0147V18.5181L48.7527 15.026L58.8963 20.181C59.0626 26.3337 56.2357 29.4932 50.2493 33.6504ZM36.1147 5.54753C36.281 5.38124 36.6136 5.38124 36.7799 5.21495C36.9461 5.04866 37.1124 5.04866 37.2787 4.88237C37.445 4.71608 37.6113 4.71608 37.9439 4.54979C38.1102 4.3835 38.2765 4.3835 38.609 4.21721C38.7753 4.21721 38.9416 4.05092 39.2742 4.05092C39.4405 4.05092 39.7731 3.88463 39.9394 3.88463C40.1056 3.88463 40.2719 3.71834 40.4382 3.71834C40.7708 3.71834 40.9371 3.55205 41.2697 3.55205C41.436 3.55205 41.6022 3.55205 41.7685 3.38576C42.2674 3.38576 42.6 3.21948 43.0989 3.21948C47.2561 2.8869 51.247 4.3835 54.4065 7.21042C54.7391 7.543 55.0717 7.87558 55.4043 8.20816C55.5706 8.37444 55.5706 8.37444 55.7369 8.54073C55.9031 8.87331 56.0694 9.0396 56.402 9.37218C56.5683 9.53847 56.5683 9.70476 56.7346 9.87105C56.9009 10.2036 57.0672 10.3699 57.2335 10.7025C57.3997 10.8688 57.3997 11.0351 57.566 11.2014C57.7323 11.5339 57.8986 11.7002 57.8986 12.0328C57.8986 12.1991 58.0649 12.3654 58.0649 12.5317C58.2312 12.8643 58.3975 13.1968 58.3975 13.5294C58.3975 13.6957 58.3975 13.6957 58.5638 13.862C58.7301 14.3609 58.8963 14.6934 58.8963 15.1923C58.8963 15.3586 58.8963 15.5249 58.8963 15.5249C58.8963 15.8575 59.0626 16.0238 59.0626 16.3563L49.9167 11.8665C49.5841 11.7002 49.4179 11.7002 49.0853 11.7002C48.919 11.7002 48.919 11.7002 48.7527 11.7002L29.4631 15.1923C29.4631 15.026 29.6294 14.6934 29.6294 14.5272C29.6294 14.1946 29.7957 14.0283 29.7957 13.6957C29.7957 13.5294 29.962 13.3631 29.962 13.0305C30.1283 12.698 30.2946 12.3654 30.2946 12.0328C30.2946 11.8665 30.4609 11.8665 30.4609 11.7002C30.6272 11.2014 30.9597 10.8688 31.126 10.3699C31.126 10.3699 31.126 10.3699 31.126 10.2036C31.4586 9.70476 31.6249 9.37218 31.9575 9.0396C32.6226 8.20816 33.4541 7.37671 34.2855 6.71155C34.6181 6.37897 35.117 6.04639 35.6158 5.88011C35.9484 5.71382 36.1147 5.71382 36.1147 5.54753ZM20.8161 16.6889C20.8161 11.5339 24.807 7.21042 29.7957 6.71155C29.6294 7.04413 29.2968 7.37671 29.1305 7.543L28.9643 7.70929C28.6317 8.04187 28.4654 8.54073 28.2991 8.87331C28.2991 8.87331 28.2991 9.0396 28.1328 9.0396C27.9665 9.70476 27.8002 10.0373 27.4676 10.5362V10.7025C27.3014 11.2014 27.1351 11.5339 26.9688 12.0328V12.1991C26.8025 12.5317 26.6362 13.0305 26.6362 13.3631C26.6362 13.5294 26.6362 13.6957 26.4699 13.862C26.4699 14.1946 26.3036 14.5272 26.3036 14.8597C26.3036 15.1923 26.3036 15.3586 26.1373 15.6912C26.1373 16.0238 26.1373 16.19 25.971 16.5226C25.971 17.0215 25.971 17.6866 25.971 18.1855V19.8484C25.971 20.5136 25.971 21.1787 26.1373 21.8439C26.1373 22.0102 26.1373 22.1765 26.1373 22.509C26.1373 23.0079 26.3036 23.6731 26.4699 24.1719C26.4699 24.3382 26.6362 24.6708 26.6362 24.8371C26.8025 25.1697 26.8025 25.5023 26.9688 25.8348C26.9688 26.0011 27.1351 26.3337 27.3014 26.5C27.4676 26.9989 27.8002 27.4977 27.9665 27.8303C27.9665 27.9966 28.1328 28.1629 28.2991 28.3292C29.6294 30.6572 31.6249 32.4864 33.7866 34.3156C30.2946 37.4751 25.8048 39.3043 21.1487 39.8031C20.8161 39.9694 20.8161 16.6889 20.8161 16.6889ZM39.1079 44.9581C40.1056 44.9581 40.7708 44.2929 40.7708 43.2952V38.4728C40.9371 38.4728 40.9371 38.4728 41.1034 38.4728C41.6022 38.6391 41.9348 38.6391 42.4337 38.6391C42.6 38.6391 42.6 38.6391 42.7663 38.6391C43.2651 38.6391 43.5977 38.8054 44.0966 38.8054C44.5955 38.8054 44.928 38.8054 45.4269 38.6391C45.5932 38.6391 45.5932 38.6391 45.7595 38.6391C46.2584 38.6391 46.5909 38.4728 47.0898 38.4728C47.2561 38.4728 47.2561 38.4728 47.4224 38.4728V43.2952C47.4224 44.2929 48.0875 44.9581 49.0853 44.9581C50.2493 44.9581 51.247 45.1244 52.4111 45.457V48.1176L44.0966 49.9468L35.7821 48.1176V45.457C36.9461 45.1244 37.9439 44.9581 39.1079 44.9581ZM29.4631 65.9106C31.126 70.4004 31.126 75.2228 29.6294 79.8789H27.4676C27.1351 79.8789 26.9688 79.8789 26.8025 80.0452C26.6362 75.5553 27.1351 69.2364 28.1328 65.2454C28.4654 65.578 28.9643 65.7443 29.4631 65.9106ZM19.1532 71.5644C19.1532 64.5803 21.8138 56.7647 25.8048 51.1108V61.2545C23.643 66.2431 22.8115 79.2137 23.643 84.2024L23.8093 84.8676H20.9824C20.1509 83.5372 19.1532 80.0452 19.1532 71.5644ZM32.4563 89.8562H29.1305V83.2047H30.7934H32.4563V89.8562ZM35.7821 81.5418C35.7821 80.544 35.117 79.8789 34.1192 79.8789H33.1215C34.4518 75.5554 34.4518 70.8992 33.1215 66.5757H55.0717C53.5751 71.3981 53.5751 76.7194 55.238 81.5418H35.7821ZM59.0626 61.2545C59.0626 62.0859 57.566 63.2499 55.7369 63.2499H32.4563C30.6271 63.2499 29.1305 62.2522 29.1305 61.2545V46.9536C30.1283 46.4547 31.2923 46.1221 32.4563 45.7896V49.2816C32.4563 50.1131 32.9552 50.7782 33.7866 50.9445L43.764 53.1063C43.9303 53.1063 44.2629 53.1063 44.4292 53.1063L54.4065 50.9445C55.238 50.7782 55.7369 50.1131 55.7369 49.2816V45.7896C56.9009 46.1221 58.0649 46.4547 59.0626 46.9536V48.2839V59.9241V61.2545ZM82.3432 50.9445C82.3432 52.4411 81.1791 53.9377 79.6825 54.2703L62.3884 57.9287V49.9468H72.8647C76.3567 49.9468 79.1836 47.2862 79.5162 43.7941L80.514 26.6663H82.3432V50.9445ZM92.3205 31.655H88.9947V25.0034H92.3205V31.655Z" fill="#222426"/>
</svg>
